<svg width="145" height="38" viewBox="0 0 145 38" fill="none" xmlns="http://www.w3.org/2000/svg">
<g filter="url(#filter0_dd_6_25261)">
<g clip-path="url(#clip0_6_25261)">
<rect x="3" y="2" width="32" height="32" rx="8" fill="white"/>
<rect x="3" y="2" width="32" height="32" rx="8" fill="url(#paint0_linear_6_25261)"/>
<path fill-rule="evenodd" clip-rule="evenodd" d="M19 4.03884C11.2895 4.03884 5.03885 10.2895 5.03885 18C5.03885 25.7105 11.2895 31.9612 19 31.9612C26.7106 31.9612 32.9612 25.7105 32.9612 18C32.9612 10.2895 26.7106 4.03884 19 4.03884ZM4.96118 18C4.96118 10.2466 11.2466 3.96117 19 3.96117C26.7535 3.96117 33.0389 10.2466 33.0389 18C33.0389 25.7534 26.7535 32.0388 19 32.0388C11.2466 32.0388 4.96118 25.7534 4.96118 18Z" fill="#D0D5DD"/>
<path fill-rule="evenodd" clip-rule="evenodd" d="M19 14.0779C16.8338 14.0779 15.0777 15.834 15.0777 18.0002C15.0777 20.1665 16.8338 21.9226 19 21.9226C21.1662 21.9226 22.9223 20.1665 22.9223 18.0002C22.9223 15.834 21.1662 14.0779 19 14.0779ZM15 18.0002C15 15.7911 16.7909 14.0002 19 14.0002C21.2091 14.0002 23 15.7911 23 18.0002C23 20.2094 21.2091 22.0002 19 22.0002C16.7909 22.0002 15 20.2094 15 18.0002Z" fill="#D0D5DD"/>
<path fill-rule="evenodd" clip-rule="evenodd" d="M19 15.3201C17.52 15.3201 16.3203 16.5198 16.3203 17.9997C16.3203 19.4796 17.52 20.6793 19 20.6793C20.4799 20.6793 21.6796 19.4796 21.6796 17.9997C21.6796 16.5198 20.4799 15.3201 19 15.3201ZM16.2427 17.9997C16.2427 16.4769 17.4772 15.2424 19 15.2424C20.5228 15.2424 21.7572 16.4769 21.7572 17.9997C21.7572 19.5225 20.5228 20.757 19 20.757C17.4772 20.757 16.2427 19.5225 16.2427 17.9997Z" fill="#D0D5DD"/>
<path d="M18.9612 2H19.0389V34H18.9612V2Z" fill="#D0D5DD"/>
<path d="M35 17.9609L35 18.0386L3 18.0386L3 17.9609L35 17.9609Z" fill="#D0D5DD"/>
<path d="M29.6019 2H29.6796V34H29.6019V2Z" fill="#D0D5DD"/>
<path d="M13.6407 2H13.7184V34H13.6407V2Z" fill="#D0D5DD"/>
<path d="M24.2815 2H24.3592V34H24.2815V2Z" fill="#D0D5DD"/>
<path d="M8.32031 2H8.39798V34H8.32031V2Z" fill="#D0D5DD"/>
<path d="M35 28.6016L35 28.6792L3 28.6792L3 28.6016L35 28.6016Z" fill="#D0D5DD"/>
<path d="M35 12.6406L35 12.7183L3 12.7183L3 12.6406L35 12.6406Z" fill="#D0D5DD"/>
<path d="M35 23.2812L35 23.3589L3 23.3589L3 23.2812L35 23.2812Z" fill="#D0D5DD"/>
<path d="M35 7.32031L35 7.39798L3 7.39798L3 7.32031L35 7.32031Z" fill="#D0D5DD"/>
<g filter="url(#filter1_dd_6_25261)">
<circle cx="19" cy="18" r="8" fill="url(#paint1_linear_6_25261)"/>
</g>
<g filter="url(#filter2_b_6_25261)">
<path d="M3 18H35V21.2C35 25.6804 35 27.9206 34.1281 29.6319C33.3611 31.1372 32.1372 32.3611 30.6319 33.1281C28.9206 34 26.6804 34 22.2 34H15.8C11.3196 34 9.07937 34 7.36808 33.1281C5.86278 32.3611 4.63893 31.1372 3.87195 29.6319C3 27.9206 3 25.6804 3 21.2V18Z" fill="white" fill-opacity="0.2"/>
</g>
</g>
</g>
<path d="M49.7614 25V10.4545H54.6761C55.8125 10.4545 56.7453 10.6487 57.4744 11.0369C58.2036 11.4205 58.7434 11.9484 59.0938 12.6207C59.4441 13.2931 59.6193 14.0578 59.6193 14.9148C59.6193 15.7718 59.4441 16.5317 59.0938 17.1946C58.7434 17.8575 58.206 18.3783 57.4815 18.7571C56.7571 19.1312 55.8314 19.3182 54.7045 19.3182H50.7273V17.7273H54.6477C55.4242 17.7273 56.0492 17.6136 56.5227 17.3864C57.0009 17.1591 57.3466 16.8371 57.5597 16.4205C57.7775 15.9991 57.8864 15.4972 57.8864 14.9148C57.8864 14.3324 57.7775 13.8234 57.5597 13.3878C57.3419 12.9522 56.9938 12.616 56.5156 12.3793C56.0374 12.1378 55.4053 12.017 54.6193 12.017H51.5227V25H49.7614ZM56.608 18.4659L60.1875 25H58.142L54.6193 18.4659H56.608ZM66.7837 25.2273C65.7326 25.2273 64.8259 24.9953 64.0636 24.5312C63.306 24.0625 62.7212 23.4091 62.3093 22.571C61.9021 21.7282 61.6985 20.7481 61.6985 19.6307C61.6985 18.5133 61.9021 17.5284 62.3093 16.6761C62.7212 15.8191 63.2942 15.1515 64.0281 14.6733C64.7667 14.1903 65.6284 13.9489 66.6133 13.9489C67.1815 13.9489 67.7425 14.0436 68.2965 14.233C68.8505 14.4223 69.3548 14.7301 69.8093 15.1562C70.2638 15.5777 70.6261 16.1364 70.896 16.8324C71.1658 17.5284 71.3008 18.3854 71.3008 19.4034V20.1136H62.8917V18.6648H69.5962C69.5962 18.0492 69.4731 17.5 69.2269 17.017C68.9854 16.5341 68.6398 16.1529 68.19 15.8736C67.7449 15.5942 67.2193 15.4545 66.6133 15.4545C65.9457 15.4545 65.368 15.6203 64.8803 15.9517C64.3974 16.2784 64.0257 16.7045 63.7653 17.2301C63.5049 17.7557 63.3746 18.3191 63.3746 18.9205V19.8864C63.3746 20.7102 63.5167 21.4086 63.8008 21.9815C64.0896 22.5497 64.4897 22.983 65.0011 23.2812C65.5124 23.5748 66.1067 23.7216 66.7837 23.7216C67.2241 23.7216 67.6218 23.66 67.9769 23.5369C68.3368 23.4091 68.6469 23.2197 68.9073 22.9688C69.1677 22.7131 69.369 22.3958 69.511 22.017L71.1303 22.4716C70.9599 23.0208 70.6734 23.5038 70.271 23.9205C69.8685 24.3324 69.3713 24.6544 68.7795 24.8864C68.1876 25.1136 67.5224 25.2273 66.7837 25.2273ZM77.0607 25.2557C76.3694 25.2557 75.7421 25.1255 75.1786 24.8651C74.6152 24.5999 74.1677 24.2188 73.8363 23.7216C73.5049 23.2197 73.3391 22.6136 73.3391 21.9034C73.3391 21.2784 73.4622 20.7718 73.7085 20.3835C73.9547 19.9905 74.2837 19.6828 74.6957 19.4602C75.1076 19.2377 75.5621 19.072 76.0593 18.9631C76.5612 18.8494 77.0655 18.7595 77.5721 18.6932C78.235 18.608 78.7724 18.544 79.1843 18.5014C79.601 18.4541 79.904 18.3759 80.0934 18.267C80.2875 18.1581 80.3846 17.9687 80.3846 17.6989V17.642C80.3846 16.9413 80.1928 16.3968 79.8093 16.0085C79.4305 15.6203 78.8552 15.4261 78.0835 15.4261C77.2833 15.4261 76.6559 15.6013 76.2013 15.9517C75.7468 16.3021 75.4272 16.6761 75.2425 17.0739L73.6516 16.5057C73.9357 15.8428 74.3145 15.3267 74.788 14.9574C75.2662 14.5833 75.7871 14.3229 76.3505 14.1761C76.9187 14.0246 77.4774 13.9489 78.0266 13.9489C78.377 13.9489 78.7795 13.9915 79.234 14.0767C79.6933 14.1572 80.136 14.3253 80.5621 14.581C80.993 14.8366 81.3505 15.2225 81.6346 15.7386C81.9187 16.2547 82.0607 16.946 82.0607 17.8125V25H80.3846V23.5227H80.2994C80.1857 23.7595 79.9963 24.0128 79.7312 24.2827C79.466 24.5526 79.1133 24.7822 78.6729 24.9716C78.2326 25.161 77.6952 25.2557 77.0607 25.2557ZM77.3164 23.75C77.9793 23.75 78.538 23.6198 78.9925 23.3594C79.4518 23.099 79.7975 22.7628 80.0295 22.3509C80.2662 21.9389 80.3846 21.5057 80.3846 21.0511V19.517C80.3136 19.6023 80.1573 19.6804 79.9158 19.7514C79.6791 19.8177 79.4045 19.8769 79.092 19.929C78.7842 19.9763 78.4835 20.0189 78.19 20.0568C77.9012 20.09 77.6668 20.1184 77.4869 20.142C77.0513 20.1989 76.6441 20.2912 76.2653 20.419C75.8912 20.5421 75.5882 20.7292 75.3562 20.9801C75.1289 21.2263 75.0153 21.5625 75.0153 21.9886C75.0153 22.571 75.2307 23.0114 75.6616 23.3097C76.0972 23.6032 76.6488 23.75 77.3164 23.75ZM86.7962 10.4545V25H85.12V10.4545H86.7962ZM94.6104 14.0909V15.5114H88.957V14.0909H94.6104ZM90.6048 11.4773H92.2809V21.875C92.2809 22.3485 92.3496 22.7036 92.4869 22.9403C92.6289 23.1723 92.8088 23.3286 93.0266 23.4091C93.2492 23.4848 93.4835 23.5227 93.7298 23.5227C93.9144 23.5227 94.0659 23.5133 94.1843 23.4943C94.3027 23.4706 94.3974 23.4517 94.4684 23.4375L94.8093 24.9432C94.6957 24.9858 94.5371 25.0284 94.3335 25.071C94.1299 25.1184 93.8718 25.142 93.5593 25.142C93.0858 25.142 92.6218 25.0402 92.1673 24.8366C91.7174 24.633 91.3434 24.3229 91.0451 23.9062C90.7515 23.4896 90.6048 22.964 90.6048 22.3295V11.4773ZM98.2113 29.0909C97.9272 29.0909 97.6739 29.0672 97.4513 29.0199C97.2288 28.9773 97.0749 28.9347 96.9897 28.892L97.4158 27.4148C97.823 27.5189 98.1829 27.5568 98.4954 27.5284C98.8079 27.5 99.0849 27.3603 99.3263 27.1094C99.5726 26.8632 99.7975 26.4631 100.001 25.9091L100.314 25.0568L96.2795 14.0909H98.0977L101.109 22.7841H101.223L104.234 14.0909H106.052L101.422 26.5909C101.213 27.1544 100.955 27.6207 100.647 27.9901C100.34 28.3641 99.9821 28.6411 99.5749 28.821C99.1725 29.0009 98.7179 29.0909 98.2113 29.0909ZM108.492 25V10.4545H113.407C114.548 10.4545 115.48 10.6605 116.205 11.0724C116.934 11.4796 117.474 12.0312 117.824 12.7273C118.175 13.4233 118.35 14.1998 118.35 15.0568C118.35 15.9138 118.175 16.6927 117.824 17.3935C117.479 18.0942 116.944 18.6529 116.219 19.0696C115.495 19.4815 114.567 19.6875 113.435 19.6875H109.912V18.125H113.378C114.159 18.125 114.787 17.9901 115.26 17.7202C115.734 17.4503 116.077 17.0857 116.29 16.6264C116.508 16.1624 116.617 15.6392 116.617 15.0568C116.617 14.4744 116.508 13.9536 116.29 13.4943C116.077 13.035 115.731 12.6752 115.253 12.4148C114.775 12.1496 114.141 12.017 113.35 12.017H110.253V25H108.492ZM120.96 25V14.0909H122.579V15.7386H122.693C122.892 15.1989 123.252 14.7609 123.772 14.4247C124.293 14.0885 124.88 13.9205 125.534 13.9205C125.657 13.9205 125.811 13.9228 125.995 13.9276C126.18 13.9323 126.32 13.9394 126.414 13.9489V15.6534C126.358 15.6392 126.227 15.6179 126.024 15.5895C125.825 15.5563 125.614 15.5398 125.392 15.5398C124.861 15.5398 124.388 15.651 123.971 15.8736C123.559 16.0914 123.233 16.3944 122.991 16.7827C122.754 17.1662 122.636 17.6042 122.636 18.0966V25H120.96ZM132.501 25.2273C131.516 25.2273 130.652 24.9929 129.909 24.5241C129.17 24.0554 128.592 23.3996 128.176 22.5568C127.764 21.714 127.558 20.7292 127.558 19.6023C127.558 18.4659 127.764 17.474 128.176 16.6264C128.592 15.7789 129.17 15.1207 129.909 14.652C130.652 14.1832 131.516 13.9489 132.501 13.9489C133.486 13.9489 134.348 14.1832 135.086 14.652C135.83 15.1207 136.407 15.7789 136.819 16.6264C137.236 17.474 137.444 18.4659 137.444 19.6023C137.444 20.7292 137.236 21.714 136.819 22.5568C136.407 23.3996 135.83 24.0554 135.086 24.5241C134.348 24.9929 133.486 25.2273 132.501 25.2273ZM132.501 23.7216C133.249 23.7216 133.865 23.5298 134.348 23.1463C134.831 22.7628 135.188 22.2585 135.42 21.6335C135.652 21.0085 135.768 20.3314 135.768 19.6023C135.768 18.8731 135.652 18.1937 135.42 17.5639C135.188 16.9342 134.831 16.4252 134.348 16.0369C133.865 15.6487 133.249 15.4545 132.501 15.4545C131.753 15.4545 131.137 15.6487 130.654 16.0369C130.172 16.4252 129.814 16.9342 129.582 17.5639C129.35 18.1937 129.234 18.8731 129.234 19.6023C129.234 20.3314 129.35 21.0085 129.582 21.6335C129.814 22.2585 130.172 22.7628 130.654 23.1463C131.137 23.5298 131.753 23.7216 132.501 23.7216Z" fill="white"/>
<defs>
<filter id="filter0_dd_6_25261" x="0" y="0" width="38" height="38" filterUnits="userSpaceOnUse" color-interpolation-filters="sRGB">
<feFlood flood-opacity="0" result="BackgroundImageFix"/>
<feColorMatrix in="SourceAlpha" type="matrix" values="0 0 0 0 0 0 0 0 0 0 0 0 0 0 0 0 0 0 127 0" result="hardAlpha"/>
<feOffset dy="1"/>
<feGaussianBlur stdDeviation="1"/>
<feColorMatrix type="matrix" values="0 0 0 0 0.0627451 0 0 0 0 0.0941176 0 0 0 0 0.156863 0 0 0 0.06 0"/>
<feBlend mode="normal" in2="BackgroundImageFix" result="effect1_dropShadow_6_25261"/>
<feColorMatrix in="SourceAlpha" type="matrix" values="0 0 0 0 0 0 0 0 0 0 0 0 0 0 0 0 0 0 127 0" result="hardAlpha"/>
<feOffset dy="1"/>
<feGaussianBlur stdDeviation="1.5"/>
<feColorMatrix type="matrix" values="0 0 0 0 0.0627451 0 0 0 0 0.0941176 0 0 0 0 0.156863 0 0 0 0.1 0"/>
<feBlend mode="normal" in2="effect1_dropShadow_6_25261" result="effect2_dropShadow_6_25261"/>
<feBlend mode="normal" in="SourceGraphic" in2="effect2_dropShadow_6_25261" result="shape"/>
</filter>
<filter id="filter1_dd_6_25261" x="8" y="8" width="22" height="22" filterUnits="userSpaceOnUse" color-interpolation-filters="sRGB">
<feFlood flood-opacity="0" result="BackgroundImageFix"/>
<feColorMatrix in="SourceAlpha" type="matrix" values="0 0 0 0 0 0 0 0 0 0 0 0 0 0 0 0 0 0 127 0" result="hardAlpha"/>
<feOffset dy="1"/>
<feGaussianBlur stdDeviation="1"/>
<feColorMatrix type="matrix" values="0 0 0 0 0.0627451 0 0 0 0 0.0941176 0 0 0 0 0.156863 0 0 0 0.06 0"/>
<feBlend mode="normal" in2="BackgroundImageFix" result="effect1_dropShadow_6_25261"/>
<feColorMatrix in="SourceAlpha" type="matrix" values="0 0 0 0 0 0 0 0 0 0 0 0 0 0 0 0 0 0 127 0" result="hardAlpha"/>
<feOffset dy="1"/>
<feGaussianBlur stdDeviation="1.5"/>
<feColorMatrix type="matrix" values="0 0 0 0 0.0627451 0 0 0 0 0.0941176 0 0 0 0 0.156863 0 0 0 0.1 0"/>
<feBlend mode="normal" in2="effect1_dropShadow_6_25261" result="effect2_dropShadow_6_25261"/>
<feBlend mode="normal" in="SourceGraphic" in2="effect2_dropShadow_6_25261" result="shape"/>
</filter>
<filter id="filter2_b_6_25261" x="-2" y="13" width="42" height="26" filterUnits="userSpaceOnUse" color-interpolation-filters="sRGB">
<feFlood flood-opacity="0" result="BackgroundImageFix"/>
<feGaussianBlur in="BackgroundImageFix" stdDeviation="2.5"/>
<feComposite in2="SourceAlpha" operator="in" result="effect1_backgroundBlur_6_25261"/>
<feBlend mode="normal" in="SourceGraphic" in2="effect1_backgroundBlur_6_25261" result="shape"/>
</filter>
<linearGradient id="paint0_linear_6_25261" x1="19" y1="2" x2="19" y2="34" gradientUnits="userSpaceOnUse">
<stop stop-color="white"/>
<stop offset="1" stop-color="#D0D5DD"/>
</linearGradient>
<linearGradient id="paint1_linear_6_25261" x1="15" y1="26" x2="23" y2="10" gradientUnits="userSpaceOnUse">
<stop stop-color="#53389E"/>
<stop offset="1" stop-color="#6941C6"/>
</linearGradient>
<clipPath id="clip0_6_25261">
<rect x="3" y="2" width="32" height="32" rx="8" fill="white"/>
</clipPath>
</defs>
</svg>
