<svg width="146" height="38" viewBox="0 0 146 38" fill="none" xmlns="http://www.w3.org/2000/svg">
<path d="M56.7614 25V10.4545H61.6761C62.8125 10.4545 63.7453 10.6487 64.4744 11.0369C65.2036 11.4205 65.7434 11.9484 66.0938 12.6207C66.4441 13.2931 66.6193 14.0578 66.6193 14.9148C66.6193 15.7718 66.4441 16.5317 66.0938 17.1946C65.7434 17.8575 65.206 18.3783 64.4815 18.7571C63.7571 19.1312 62.8314 19.3182 61.7045 19.3182H57.7273V17.7273H61.6477C62.4242 17.7273 63.0492 17.6136 63.5227 17.3864C64.0009 17.1591 64.3466 16.8371 64.5597 16.4205C64.7775 15.9991 64.8864 15.4972 64.8864 14.9148C64.8864 14.3324 64.7775 13.8234 64.5597 13.3878C64.3419 12.9522 63.9938 12.616 63.5156 12.3793C63.0374 12.1378 62.4053 12.017 61.6193 12.017H58.5227V25H56.7614ZM63.608 18.4659L67.1875 25H65.142L61.6193 18.4659H63.608ZM73.7837 25.2273C72.7326 25.2273 71.8259 24.9953 71.0636 24.5312C70.306 24.0625 69.7212 23.4091 69.3093 22.571C68.9021 21.7282 68.6985 20.7481 68.6985 19.6307C68.6985 18.5133 68.9021 17.5284 69.3093 16.6761C69.7212 15.8191 70.2942 15.1515 71.0281 14.6733C71.7667 14.1903 72.6284 13.9489 73.6133 13.9489C74.1815 13.9489 74.7425 14.0436 75.2965 14.233C75.8505 14.4223 76.3548 14.7301 76.8093 15.1562C77.2638 15.5777 77.6261 16.1364 77.896 16.8324C78.1658 17.5284 78.3008 18.3854 78.3008 19.4034V20.1136H69.8917V18.6648H76.5962C76.5962 18.0492 76.4731 17.5 76.2269 17.017C75.9854 16.5341 75.6398 16.1529 75.19 15.8736C74.7449 15.5942 74.2193 15.4545 73.6133 15.4545C72.9457 15.4545 72.368 15.6203 71.8803 15.9517C71.3974 16.2784 71.0257 16.7045 70.7653 17.2301C70.5049 17.7557 70.3746 18.3191 70.3746 18.9205V19.8864C70.3746 20.7102 70.5167 21.4086 70.8008 21.9815C71.0896 22.5497 71.4897 22.983 72.0011 23.2812C72.5124 23.5748 73.1067 23.7216 73.7837 23.7216C74.2241 23.7216 74.6218 23.66 74.9769 23.5369C75.3368 23.4091 75.6469 23.2197 75.9073 22.9688C76.1677 22.7131 76.369 22.3958 76.511 22.017L78.1303 22.4716C77.9599 23.0208 77.6734 23.5038 77.271 23.9205C76.8685 24.3324 76.3713 24.6544 75.7795 24.8864C75.1876 25.1136 74.5224 25.2273 73.7837 25.2273ZM84.0607 25.2557C83.3694 25.2557 82.7421 25.1255 82.1786 24.8651C81.6152 24.5999 81.1677 24.2188 80.8363 23.7216C80.5049 23.2197 80.3391 22.6136 80.3391 21.9034C80.3391 21.2784 80.4622 20.7718 80.7085 20.3835C80.9547 19.9905 81.2837 19.6828 81.6957 19.4602C82.1076 19.2377 82.5621 19.072 83.0593 18.9631C83.5612 18.8494 84.0655 18.7595 84.5721 18.6932C85.235 18.608 85.7724 18.544 86.1843 18.5014C86.601 18.4541 86.904 18.3759 87.0934 18.267C87.2875 18.1581 87.3846 17.9687 87.3846 17.6989V17.642C87.3846 16.9413 87.1928 16.3968 86.8093 16.0085C86.4305 15.6203 85.8552 15.4261 85.0835 15.4261C84.2833 15.4261 83.6559 15.6013 83.2013 15.9517C82.7468 16.3021 82.4272 16.6761 82.2425 17.0739L80.6516 16.5057C80.9357 15.8428 81.3145 15.3267 81.788 14.9574C82.2662 14.5833 82.7871 14.3229 83.3505 14.1761C83.9187 14.0246 84.4774 13.9489 85.0266 13.9489C85.377 13.9489 85.7795 13.9915 86.234 14.0767C86.6933 14.1572 87.136 14.3253 87.5621 14.581C87.993 14.8366 88.3505 15.2225 88.6346 15.7386C88.9187 16.2547 89.0607 16.946 89.0607 17.8125V25H87.3846V23.5227H87.2994C87.1857 23.7595 86.9963 24.0128 86.7312 24.2827C86.466 24.5526 86.1133 24.7822 85.6729 24.9716C85.2326 25.161 84.6952 25.2557 84.0607 25.2557ZM84.3164 23.75C84.9793 23.75 85.538 23.6198 85.9925 23.3594C86.4518 23.099 86.7975 22.7628 87.0295 22.3509C87.2662 21.9389 87.3846 21.5057 87.3846 21.0511V19.517C87.3136 19.6023 87.1573 19.6804 86.9158 19.7514C86.6791 19.8177 86.4045 19.8769 86.092 19.929C85.7842 19.9763 85.4835 20.0189 85.19 20.0568C84.9012 20.09 84.6668 20.1184 84.4869 20.142C84.0513 20.1989 83.6441 20.2912 83.2653 20.419C82.8912 20.5421 82.5882 20.7292 82.3562 20.9801C82.1289 21.2263 82.0153 21.5625 82.0153 21.9886C82.0153 22.571 82.2307 23.0114 82.6616 23.3097C83.0972 23.6032 83.6488 23.75 84.3164 23.75ZM93.7962 10.4545V25H92.12V10.4545H93.7962ZM101.61 14.0909V15.5114H95.957V14.0909H101.61ZM97.6048 11.4773H99.2809V21.875C99.2809 22.3485 99.3496 22.7036 99.4869 22.9403C99.6289 23.1723 99.8088 23.3286 100.027 23.4091C100.249 23.4848 100.484 23.5227 100.73 23.5227C100.914 23.5227 101.066 23.5133 101.184 23.4943C101.303 23.4706 101.397 23.4517 101.468 23.4375L101.809 24.9432C101.696 24.9858 101.537 25.0284 101.333 25.071C101.13 25.1184 100.872 25.142 100.559 25.142C100.086 25.142 99.6218 25.0402 99.1673 24.8366C98.7174 24.633 98.3434 24.3229 98.0451 23.9062C97.7515 23.4896 97.6048 22.964 97.6048 22.3295V11.4773ZM105.211 29.0909C104.927 29.0909 104.674 29.0672 104.451 29.0199C104.229 28.9773 104.075 28.9347 103.99 28.892L104.416 27.4148C104.823 27.5189 105.183 27.5568 105.495 27.5284C105.808 27.5 106.085 27.3603 106.326 27.1094C106.573 26.8632 106.797 26.4631 107.001 25.9091L107.314 25.0568L103.279 14.0909H105.098L108.109 22.7841H108.223L111.234 14.0909H113.052L108.422 26.5909C108.213 27.1544 107.955 27.6207 107.647 27.9901C107.34 28.3641 106.982 28.6411 106.575 28.821C106.172 29.0009 105.718 29.0909 105.211 29.0909ZM115.492 25V10.4545H120.407C121.548 10.4545 122.48 10.6605 123.205 11.0724C123.934 11.4796 124.474 12.0312 124.824 12.7273C125.175 13.4233 125.35 14.1998 125.35 15.0568C125.35 15.9138 125.175 16.6927 124.824 17.3935C124.479 18.0942 123.944 18.6529 123.219 19.0696C122.495 19.4815 121.567 19.6875 120.435 19.6875H116.912V18.125H120.378C121.159 18.125 121.787 17.9901 122.26 17.7202C122.734 17.4503 123.077 17.0857 123.29 16.6264C123.508 16.1624 123.617 15.6392 123.617 15.0568C123.617 14.4744 123.508 13.9536 123.29 13.4943C123.077 13.035 122.731 12.6752 122.253 12.4148C121.775 12.1496 121.141 12.017 120.35 12.017H117.253V25H115.492ZM127.96 25V14.0909H129.579V15.7386H129.693C129.892 15.1989 130.252 14.7609 130.772 14.4247C131.293 14.0885 131.88 13.9205 132.534 13.9205C132.657 13.9205 132.811 13.9228 132.995 13.9276C133.18 13.9323 133.32 13.9394 133.414 13.9489V15.6534C133.358 15.6392 133.227 15.6179 133.024 15.5895C132.825 15.5563 132.614 15.5398 132.392 15.5398C131.861 15.5398 131.388 15.651 130.971 15.8736C130.559 16.0914 130.233 16.3944 129.991 16.7827C129.754 17.1662 129.636 17.6042 129.636 18.0966V25H127.96ZM139.501 25.2273C138.516 25.2273 137.652 24.9929 136.909 24.5241C136.17 24.0554 135.592 23.3996 135.176 22.5568C134.764 21.714 134.558 20.7292 134.558 19.6023C134.558 18.4659 134.764 17.474 135.176 16.6264C135.592 15.7789 136.17 15.1207 136.909 14.652C137.652 14.1832 138.516 13.9489 139.501 13.9489C140.486 13.9489 141.348 14.1832 142.086 14.652C142.83 15.1207 143.407 15.7789 143.819 16.6264C144.236 17.474 144.444 18.4659 144.444 19.6023C144.444 20.7292 144.236 21.714 143.819 22.5568C143.407 23.3996 142.83 24.0554 142.086 24.5241C141.348 24.9929 140.486 25.2273 139.501 25.2273ZM139.501 23.7216C140.249 23.7216 140.865 23.5298 141.348 23.1463C141.831 22.7628 142.188 22.2585 142.42 21.6335C142.652 21.0085 142.768 20.3314 142.768 19.6023C142.768 18.8731 142.652 18.1937 142.42 17.5639C142.188 16.9342 141.831 16.4252 141.348 16.0369C140.865 15.6487 140.249 15.4545 139.501 15.4545C138.753 15.4545 138.137 15.6487 137.654 16.0369C137.172 16.4252 136.814 16.9342 136.582 17.5639C136.35 18.1937 136.234 18.8731 136.234 19.6023C136.234 20.3314 136.35 21.0085 136.582 21.6335C136.814 22.2585 137.172 22.7628 137.654 23.1463C138.137 23.5298 138.753 23.7216 139.501 23.7216Z" fill="black"/>
<g filter="url(#filter0_dd_104_14505)">
<g clip-path="url(#clip0_104_14505)">
<rect x="3" y="2" width="32" height="32" rx="8" fill="white"/>
<rect x="3" y="2" width="32" height="32" rx="8" fill="url(#paint0_linear_104_14505)"/>
<path fill-rule="evenodd" clip-rule="evenodd" d="M19 4.03884C11.2895 4.03884 5.03885 10.2895 5.03885 18C5.03885 25.7105 11.2895 31.9612 19 31.9612C26.7106 31.9612 32.9612 25.7105 32.9612 18C32.9612 10.2895 26.7106 4.03884 19 4.03884ZM4.96118 18C4.96118 10.2466 11.2466 3.96117 19 3.96117C26.7535 3.96117 33.0389 10.2466 33.0389 18C33.0389 25.7534 26.7535 32.0388 19 32.0388C11.2466 32.0388 4.96118 25.7534 4.96118 18Z" fill="#D0D5DD"/>
<path fill-rule="evenodd" clip-rule="evenodd" d="M19 14.0779C16.8338 14.0779 15.0777 15.834 15.0777 18.0002C15.0777 20.1665 16.8338 21.9226 19 21.9226C21.1662 21.9226 22.9223 20.1665 22.9223 18.0002C22.9223 15.834 21.1662 14.0779 19 14.0779ZM15 18.0002C15 15.7911 16.7909 14.0002 19 14.0002C21.2091 14.0002 23 15.7911 23 18.0002C23 20.2094 21.2091 22.0002 19 22.0002C16.7909 22.0002 15 20.2094 15 18.0002Z" fill="#D0D5DD"/>
<path fill-rule="evenodd" clip-rule="evenodd" d="M19 15.3201C17.52 15.3201 16.3203 16.5198 16.3203 17.9997C16.3203 19.4796 17.52 20.6793 19 20.6793C20.4799 20.6793 21.6796 19.4796 21.6796 17.9997C21.6796 16.5198 20.4799 15.3201 19 15.3201ZM16.2427 17.9997C16.2427 16.4769 17.4772 15.2424 19 15.2424C20.5228 15.2424 21.7572 16.4769 21.7572 17.9997C21.7572 19.5225 20.5228 20.757 19 20.757C17.4772 20.757 16.2427 19.5225 16.2427 17.9997Z" fill="#D0D5DD"/>
<path d="M18.9612 2H19.0389V34H18.9612V2Z" fill="#D0D5DD"/>
<path d="M35 17.9609L35 18.0386L3 18.0386L3 17.9609L35 17.9609Z" fill="#D0D5DD"/>
<path d="M29.6019 2H29.6796V34H29.6019V2Z" fill="#D0D5DD"/>
<path d="M13.6407 2H13.7184V34H13.6407V2Z" fill="#D0D5DD"/>
<path d="M24.2815 2H24.3592V34H24.2815V2Z" fill="#D0D5DD"/>
<path d="M8.32031 2H8.39798V34H8.32031V2Z" fill="#D0D5DD"/>
<path d="M35 28.6016L35 28.6792L3 28.6792L3 28.6016L35 28.6016Z" fill="#D0D5DD"/>
<path d="M35 12.6406L35 12.7183L3 12.7183L3 12.6406L35 12.6406Z" fill="#D0D5DD"/>
<path d="M35 23.2812L35 23.3589L3 23.3589L3 23.2812L35 23.2812Z" fill="#D0D5DD"/>
<path d="M35 7.32031L35 7.39798L3 7.39798L3 7.32031L35 7.32031Z" fill="#D0D5DD"/>
<g filter="url(#filter1_dd_104_14505)">
<circle cx="19" cy="18" r="8" fill="url(#paint1_linear_104_14505)"/>
</g>
<g filter="url(#filter2_b_104_14505)">
<path d="M3 18H35V21.2C35 25.6804 35 27.9206 34.1281 29.6319C33.3611 31.1372 32.1372 32.3611 30.6319 33.1281C28.9206 34 26.6804 34 22.2 34H15.8C11.3196 34 9.07937 34 7.36808 33.1281C5.86278 32.3611 4.63893 31.1372 3.87195 29.6319C3 27.9206 3 25.6804 3 21.2V18Z" fill="white" fill-opacity="0.2"/>
</g>
</g>
</g>
<defs>
<filter id="filter0_dd_104_14505" x="0" y="0" width="38" height="38" filterUnits="userSpaceOnUse" color-interpolation-filters="sRGB">
<feFlood flood-opacity="0" result="BackgroundImageFix"/>
<feColorMatrix in="SourceAlpha" type="matrix" values="0 0 0 0 0 0 0 0 0 0 0 0 0 0 0 0 0 0 127 0" result="hardAlpha"/>
<feOffset dy="1"/>
<feGaussianBlur stdDeviation="1"/>
<feColorMatrix type="matrix" values="0 0 0 0 0.0627451 0 0 0 0 0.0941176 0 0 0 0 0.156863 0 0 0 0.06 0"/>
<feBlend mode="normal" in2="BackgroundImageFix" result="effect1_dropShadow_104_14505"/>
<feColorMatrix in="SourceAlpha" type="matrix" values="0 0 0 0 0 0 0 0 0 0 0 0 0 0 0 0 0 0 127 0" result="hardAlpha"/>
<feOffset dy="1"/>
<feGaussianBlur stdDeviation="1.5"/>
<feColorMatrix type="matrix" values="0 0 0 0 0.0627451 0 0 0 0 0.0941176 0 0 0 0 0.156863 0 0 0 0.1 0"/>
<feBlend mode="normal" in2="effect1_dropShadow_104_14505" result="effect2_dropShadow_104_14505"/>
<feBlend mode="normal" in="SourceGraphic" in2="effect2_dropShadow_104_14505" result="shape"/>
</filter>
<filter id="filter1_dd_104_14505" x="8" y="8" width="22" height="22" filterUnits="userSpaceOnUse" color-interpolation-filters="sRGB">
<feFlood flood-opacity="0" result="BackgroundImageFix"/>
<feColorMatrix in="SourceAlpha" type="matrix" values="0 0 0 0 0 0 0 0 0 0 0 0 0 0 0 0 0 0 127 0" result="hardAlpha"/>
<feOffset dy="1"/>
<feGaussianBlur stdDeviation="1"/>
<feColorMatrix type="matrix" values="0 0 0 0 0.0627451 0 0 0 0 0.0941176 0 0 0 0 0.156863 0 0 0 0.06 0"/>
<feBlend mode="normal" in2="BackgroundImageFix" result="effect1_dropShadow_104_14505"/>
<feColorMatrix in="SourceAlpha" type="matrix" values="0 0 0 0 0 0 0 0 0 0 0 0 0 0 0 0 0 0 127 0" result="hardAlpha"/>
<feOffset dy="1"/>
<feGaussianBlur stdDeviation="1.5"/>
<feColorMatrix type="matrix" values="0 0 0 0 0.0627451 0 0 0 0 0.0941176 0 0 0 0 0.156863 0 0 0 0.1 0"/>
<feBlend mode="normal" in2="effect1_dropShadow_104_14505" result="effect2_dropShadow_104_14505"/>
<feBlend mode="normal" in="SourceGraphic" in2="effect2_dropShadow_104_14505" result="shape"/>
</filter>
<filter id="filter2_b_104_14505" x="-2" y="13" width="42" height="26" filterUnits="userSpaceOnUse" color-interpolation-filters="sRGB">
<feFlood flood-opacity="0" result="BackgroundImageFix"/>
<feGaussianBlur in="BackgroundImageFix" stdDeviation="2.5"/>
<feComposite in2="SourceAlpha" operator="in" result="effect1_backgroundBlur_104_14505"/>
<feBlend mode="normal" in="SourceGraphic" in2="effect1_backgroundBlur_104_14505" result="shape"/>
</filter>
<linearGradient id="paint0_linear_104_14505" x1="19" y1="2" x2="19" y2="34" gradientUnits="userSpaceOnUse">
<stop stop-color="white"/>
<stop offset="1" stop-color="#D0D5DD"/>
</linearGradient>
<linearGradient id="paint1_linear_104_14505" x1="15" y1="26" x2="23" y2="10" gradientUnits="userSpaceOnUse">
<stop stop-color="#53389E"/>
<stop offset="1" stop-color="#6941C6"/>
</linearGradient>
<clipPath id="clip0_104_14505">
<rect x="3" y="2" width="32" height="32" rx="8" fill="white"/>
</clipPath>
</defs>
</svg>
